# xmcd
#
# Track frame offsets: 
#        150
#        19004
#        36767
#        52402
#        76476
#        94354
#        109364
#        133437
#
# Disc length: 2053 seconds
#
# Revision: 2
# Processed by: cddbd v1.5.2PL0 Copyright (c) Steve Scherf et al.
# Submitted via: ExactAudioCopy v1.1
#
DISCID=75080308
DTITLE=Bobby Womack - Pieces
DYEAR=1978
DGENRE=Soul
TTITLE0=It's Party Time
TTITLE1=Trust Your Heart
TTITLE2=Stop Before We Start
TTITLE3=When Love Begins, Friendship Ends
TTITLE4=Wind It Up
TTITLE5=Is This The Thanks I Get
TTITLE6=Caught Up In The Middle
TTITLE7=Never Let Nothing Get The Best Of You
EXTD=YEAR: 1978
EXTT0=
EXTT1=
EXTT2=
EXTT3=
EXTT4=
EXTT5=
EXTT6=
EXTT7=
PLAYORDER=
